<?xml version="1.0" encoding="utf-8"?>
<!-- Generator: Adobe Illustrator 28.1.0, SVG Export Plug-In . SVG Version: 6.00 Build 0)  -->
<svg version="1.1" id="Layer_1" xmlns="http://www.w3.org/2000/svg" xmlns:xlink="http://www.w3.org/1999/xlink" x="0px" y="0px"
	 viewBox="0 0 556.2 280.4" style="enable-background:new 0 0 556.2 280.4;" xml:space="preserve">
<style type="text/css">
	.st0{fill:url(#SVGID_1_);}
	.st1{fill:#FFCB05;}
	.st2{fill:#004A94;}
	.st3{fill:#FFFFFF;}
	.st4{fill:#2D59A9;}
</style>
<g>
	<g>
		
			<linearGradient id="SVGID_1_" gradientUnits="userSpaceOnUse" x1="-361.8586" y1="-379.7242" x2="-361.8586" y2="-215.0345" gradientTransform="matrix(1.1979 0 0 1.1979 708.2738 473.4161)">
			<stop  offset="0" style="stop-color:#009DC4"/>
			<stop  offset="1" style="stop-color:#BBDDEA"/>
		</linearGradient>
		<path class="st0" d="M30.8,121.7c0,0,4.5,7.6,4.5,7.6l7.9-4l1.1-0.6l36.4,81l3.5,7.8l8.1-2.7l19.7-6.5l8.6-2.9l-2.3-8.8
			l-10.5-40.1c3-2.3,5.8-4.7,8.4-7.2c-0.6,4.8-0.3,9.7,1,14.3c2.7,9.7,9.1,17.4,18,21.5c9.5,4.5,21.2,4.4,32-0.3
			c5.4-2.4,10.2-5.8,14.3-9.8l1.5,16l34.5-5.4l0-31l72,34.9v-34.6c2.9-0.3,5.9-0.8,8.8-1.5c7.9-2,14.7-4.7,20.7-8.4l-3,18.6
			l38.8,5.7l2.1-14l10.1,18.7l6.2-12l2.3,19.6l44,7.3l-2.3-14.8c6,0.6,12.4-0.2,18.5-2.6c1.5-0.6,2.9-1.2,4.3-2l-1.8,15.8l29.3,3.8
			l0.2,12l30.5,9.3L538.2,86l-41.4-9.6l-3.9,16.3l-3.6-18l-48.7-10.2l0.4,27.1l7.3,1.6l-0.5,4.9c-0.1,0-0.1-0.1-0.2-0.1
			c-9.1-4.7-20.3-5.1-31-1c-3.5,1.4-6.8,3.2-9.9,5.4L399.3,56l-32.4,0.3l-0.9,5.3l-34.1,0.4L328,86l-2.8-3.5
			C316.9,72.5,305,67,291.7,66.8L320.6,51l-20.2-30L264,63.5l6.3,7.6c-5.7,2.4-10.7,5.7-14.8,9.6l-31.3-27.5l-11,21.1l0.4-20.2
			l-48.9,16.1l1.2,26.3l8.3-2.3l1.2,13.3c-9.5-4.2-20.9-4-31.5,0.6c-3.1,1.4-6.1,3.1-8.8,5.1c1.8-8.1,1.4-16.2-1.7-23.3
			c-3.6-8.4-10.1-15.3-17.9-19.6c-5.5-3.6-12.1-5.9-19-6.6c-16.9-2.8-37.2,0.5-57.2,9.2C32.3,76.4,25.4,80,19.2,84l-7.8,5.1l4.7,7.9
			 M233.4,116.1l9.3-9.1c-0.4,4.2-0.2,8.5,0.7,12.9L233.4,116.1z M324.3,109l-6.4-5.7l6.8-7.3l2-2.2L324.3,109z"/>
		<path class="st1" d="M502.9,68.7L498.9,85l-3.6-18l-48.8-10.7l0.4,27.1l7.3,1.6l-0.6,4.9c-0.1,0-0.1-0.1-0.2-0.1
			c-9.1-4.8-20.4-5.3-31-1.3c-3.6,1.4-6.9,3.2-9.9,5.3l-7.3-46.5h-32.5l-0.9,5.3h-34.1l-3.9,23.9l-2.8-3.5
			c-8.3-10.2-20.3-15.8-33.6-16.1l29-15.6l-20.2-30.2l-36.5,42.1l6.3,7.7c-5.7,2.3-10.7,5.5-14.8,9.4l-31.3-27.8l-11,21l0.4-20.2
			l-49,15.6l1.2,26.3l8.3-2.2l1.2,13.3c-9.5-4.3-20.9-4.2-31.6,0.3c-3.1,1.4-6.1,3-8.8,5c1.8-8.1,1.4-16.1-1.7-23.3
			c-3.7-8.4-10.1-15.4-18-19.8c-5.5-3.7-12.1-6-19-6.8c-16.9-3-37.3,0.1-57.3,8.6c-7.4,3.1-14.2,6.7-20.4,10.7l-7.8,5l4.7,8
			l14.7,24.8c0,0,4.5,7.6,4.5,7.6l7.9-3.9l1.1-0.5l36.4,81.4l3.5,7.8l8.2-2.6l19.7-6.3l8.6-2.8l-2.3-8.8l-10.5-40.2
			c3-2.2,5.8-4.6,8.4-7.1c-0.6,4.8-0.3,9.7,1,14.3c2.7,9.7,9.1,17.5,18,21.7c9.6,4.6,21.3,4.6,32,0c5.4-2.3,10.2-5.6,14.3-9.7
			l1.5,16l34.5-5.1l0-31l72.2,35.7v-34.6c2.9-0.2,5.9-0.7,8.8-1.4c8-1.9,14.7-4.6,20.8-8.2l-3,18.5l38.9,6.1l2.2-14l10.2,18.8
			l6.2-12l2.3,19.7l44.1,7.8l-2.3-14.9c6,0.7,12.4-0.1,18.6-2.4c1.5-0.6,2.9-1.2,4.3-1.9l-1.8,15.8l29.4,4.1l0.2,12l30.6,9.6
			l39.9-120.2L502.9,68.7z M102.6,113.7c-1.4-4.7-4.5-14.9-4.5-14.9c0,0.1-0.6-2.2-1.3-4.7c2.8-0.5,5.5-0.2,7.7,0.8
			c1.2,0.6,3.4,2,3.8,4.6C109.3,105.3,107.3,109.5,102.6,113.7z M239,105.7l9.3-9c-0.4,4.2-0.2,8.5,0.7,12.9L239,105.7z M281.5,102
			c-2.4-4.5-1.9-10.2,1.7-14.2c3.5-3.8,8.9-4.9,13.5-3.2L281.5,102z M330,99.6l-6.4-5.7l6.8-7.2l2-2.2L330,99.6z"/>
		<g>
			<path class="st2" d="M502.9,68.7L498.9,85l-3.6-18l-48.8-10.7l0.4,27.1l7.3,1.6l-0.6,4.9c-0.1,0-0.1-0.1-0.2-0.1
				c-9.1-4.8-20.4-5.3-31-1.3c-3.6,1.4-6.9,3.2-9.9,5.3l-7.3-46.5h-32.5l-0.9,5.3h-34.1l-3.9,23.9l-2.8-3.5
				c-8.3-10.2-20.3-15.8-33.6-16.1l29-15.6l-20.2-30.2l-36.5,42.1l6.3,7.7c-5.7,2.3-10.7,5.5-14.8,9.4l-31.3-27.8l-11,21l0.4-20.2
				l-49,15.6l1.2,26.3l8.3-2.2l1.2,13.3c-9.5-4.3-20.9-4.2-31.6,0.3c-3.1,1.4-6.1,3-8.8,5c1.8-8.1,1.4-16.1-1.7-23.3
				c-3.7-8.4-10.1-15.4-18-19.8c-5.5-3.7-12.1-6-19-6.8c-16.9-3-37.3,0.1-57.3,8.6c-7.4,3.1-14.2,6.7-20.4,10.7l-7.8,5l4.7,8
				l14.7,24.8c0,0,4.5,7.6,4.5,7.6l7.9-3.9l1.1-0.5l36.4,81.4l3.5,7.8l8.2-2.6l19.7-6.3l8.6-2.8l-2.3-8.8l-10.5-40.2
				c3-2.2,5.8-4.6,8.4-7.1c-0.6,4.8-0.3,9.7,1,14.3c2.7,9.7,9.1,17.5,18,21.7c9.6,4.6,21.3,4.6,32,0c5.4-2.3,10.2-5.6,14.3-9.7
				l1.5,16l34.5-5.1l0-31l72.2,35.7v-34.6c2.9-0.2,5.9-0.7,8.8-1.4c8-1.9,14.7-4.6,20.8-8.2l-3,18.5l38.9,6.1l2.2-14l10.2,18.8
				l6.2-12l2.3,19.7l44.1,7.8l-2.3-14.9c6,0.7,12.4-0.1,18.6-2.4c1.5-0.6,2.9-1.2,4.3-1.9l-1.8,15.8l29.4,4.1l0.2,12l30.6,9.6
				l39.9-120.2L502.9,68.7z M330.4,86.6l2-2.2L330,99.6l-6.4-5.7L330.4,86.6z M304.6,24.7l10.7,14.5l-30.6,15.1l-2.1-3.2L304.6,24.7
				z M248.9,109.5l-10-3.9l9.3-9C247.8,100.8,248,105.1,248.9,109.5z M102.2,136.7l12.2,46.8l-19.7,6.3L54.1,99.3
				c-2.2,1.2-6.3,3.1-10,4.9L29.5,79.5c5.8-3.7,12.2-7,19-9.9c19.1-8.1,37.3-10.5,51.9-8c5.1,0.6,10.6,2.1,15.4,5.3
				c6.6,3.7,11.6,8.9,14.5,15.6C137.3,98.8,125.5,122.3,102.2,136.7z M185.9,148.2c-4.1,5.7-9.8,10.4-16.5,13.3
				c-17.1,7.3-34.2,0-38.8-16.2c-4.4-15.7,5.9-34.4,22.5-41.6c10.6-4.5,21.2-3.4,28.8,1.8c4.7,3.2,8.3,8,10,14
				c0.2,0.7,0.3,1.3,0.5,2c0.5,2.3,0.7,4.6,0.6,7C192.7,135.3,190.1,142.3,185.9,148.2z M286.1,161.4l-71.6-35.8l0.1,37.5l-18.5,2.5
				l-1.3-15.5c5.7-9.8,7.8-21.4,4.8-31.9c-1.6-5.8-4.7-10.9-8.8-14.9l-2.7-31.6l-8.3,2.2l-0.4-8l29.8-8.9l1.8,30.7L233,57l21.4,20.4
				l-30,31.6l28.1,11.1c3.2,6,7.9,11,14,14.7c5.8,3.6,12.5,5.7,19.6,6.4V161.4z M301.8,130.8c-2.3,0.5-4.5,0.9-6.6,1.1
				c-16.4,1.6-30.2-6-35.5-18.2c-0.6-1.5-1.1-3-1.5-4.6c-2.4-10.3-0.4-19.5,4.7-26.7c1.5-2.1,3.2-4,5.2-5.7
				c4.8-4.3,10.9-7.4,17.9-9.1c15.7-3.8,29.5,1,37.9,11.4L294,110.7c2,0.4,5.2-0.2,7.6-0.7c7.1-1.7,11.1-5.5,14.6-9.6l11.9,10.7
				l3.6,3.3c-1.6,1.6-3.2,3.1-4.9,4.5C320,124.6,312.1,128.3,301.8,130.8z M414.5,165l-24.4-3.7l-6.5-43l-9.2,23.7l-13.7-29.6h-0.1
				l-5.4,34.3l-22.9-4l3.2-19.2c0.9-0.8,1.7-1.6,2.6-2.5l7.4-7.6l-7.2-6.5l7.6-45.6H369l5.8,31.6l6.5-36.6h16.5l6.9,44.6
				c-8.7,9.9-13,23.3-10,35.5c2.3,9.5,8.1,17.1,16.4,21.5c0.8,0.4,1.7,0.8,2.6,1.2L414.5,165z M438.9,151.7
				c-5.9,2.2-11.8,2.7-17,1.7c-3.6-0.7-7-2.1-9.8-4.2c-4.6-3.3-8-8.2-9.5-14.4c-1.8-7.4-0.1-15.3,3.8-22.2c2-3.4,4.5-6.6,7.6-9.3
				c3.4-3,7.3-5.5,11.6-7.2c10.1-3.8,20-2.5,27.1,2.6c2.6,1.8,4.7,4.1,6.4,6.9c1.3,2.1,2.3,4.5,2.9,7c2.1,8.9-0.4,18.4-6,26.1
				c-2.4,3.3-5.3,6.2-8.7,8.6C444.7,149.1,441.9,150.6,438.9,151.7z M498.8,187.8l-16.9-5.1l-1.5-62.4l-8.5,48.2l-18.5-2.9l1.3-13.9
				c12.1-10.2,18.5-26.3,15-40.8c-1.5-6.5-4.9-12.1-9.5-16.4l1.6-16.3l-7-1.9l0.5-8.7l31.8,6.4l10.7,50.8l11-45.5l24.2,5.4
				L498.8,187.8z"/>
			<path class="st2" d="M447.6,107.2c0.2,0.7,0.3,1.5,0.3,2.3c-0.2,4.7-4.7,8.4-10,8.2c-5.3-0.2-9.5-4.2-9.3-9
				c0.2-4.4,4.1-7.9,9-8.2c-0.9-0.2-1.9-0.3-2.9-0.4c-8.9-0.4-16.1,5.9-16.5,13.8c-0.3,8.3,6.4,15.2,15.1,15.6
				c8.9,0.4,16.1-5.9,16.5-14.3C450,112.3,449.1,109.6,447.6,107.2z"/>
			<path class="st2" d="M178,116.8c0,4.7-4.3,8.6-9.6,8.6s-9.6-3.8-9.6-8.6c0-4.4,3.8-8.1,8.7-8.5c-0.9-0.2-1.9-0.3-2.9-0.3
				c-8.9,0-15.9,6.6-15.9,14.4c0,8.4,7,14.9,15.8,14.9c8.9,0,15.9-6.6,15.9-14.9c0-2.9-1-5.6-2.6-7.9C177.9,115.3,178,116,178,116.8
				z"/>
		</g>
		<path class="st2" d="M281.9,100.8c-2.2-4-1.8-9.1,1.5-12.7c3.1-3.5,8-4.4,12.1-2.9L281.9,100.8z M283.4,88.1
			c-3.3,3.6-3.7,8.7-1.5,12.7l13.6-15.6C291.4,83.7,286.6,84.6,283.4,88.1z M303,82.9c-7-6.3-17.7-5.8-24.1,1.1
			c-6.3,7-5.8,17.7,1.1,24.1c0.6,0.5,1.2,1,1.8,1.4l22.3-25.4C303.9,83.7,303.5,83.3,303,82.9z M281.9,100.8
			c-2.2-4-1.8-9.1,1.5-12.7c3.1-3.5,8-4.4,12.1-2.9L281.9,100.8z"/>
		<path class="st2" d="M114.7,98c-1.7-9.6-14.2-15-26.7-8.3l3.1,11l4.9,16.2l2.3,7.4C107.7,118.4,117.1,111.3,114.7,98z
			 M102.3,112.7c-1.4-4.4-4.3-14-4.3-14c0,0.1-0.6-2.1-1.3-4.4c2.6-0.5,5.2-0.2,7.3,0.8c1.2,0.6,3.2,1.9,3.6,4.3
			C108.7,104.8,106.8,108.7,102.3,112.7z"/>
	</g>
	<g>
		<path d="M512.4,190.5h4.2v0.6h-1.7v4.5h-0.7v-4.5h-1.7V190.5z"/>
		<path d="M517.2,195.6v-5.2h1l1.5,4.4l1.5-4.4h1v5.2h-0.7v-3c0-0.1,0-0.3,0-0.5c0-0.2,0-0.5,0-0.8l-1.5,4.3h-0.7l-1.5-4.3v0.2
			c0,0.1,0,0.3,0,0.6c0,0.3,0,0.4,0,0.6v3H517.2z"/>
	</g>
	<g>
		<path d="M512.4,220.5h4.2v0.6h-1.7v4.5h-0.7v-4.5h-1.7V220.5z"/>
		<path d="M517.2,225.7v-5.2h1l1.5,4.4l1.5-4.4h1v5.2h-0.7v-3c0-0.1,0-0.3,0-0.5c0-0.2,0-0.5,0-0.8l-1.5,4.3h-0.7l-1.5-4.3v0.2
			c0,0.1,0,0.3,0,0.6c0,0.3,0,0.4,0,0.6v3H517.2z"/>
	</g>
	<path class="st3" d="M132.9,234.8c-0.6,3.1-1.1,6.5-1.4,9.1c-0.2,2.6,0.4,4.9,0.3,6.1c-0.2,1.3-1.6,2.3-2.6,2.5
		c-1,0.2-2.1,0.3-2.6-1.3c-0.3-0.8-0.3-2.4-0.2-4.4c0.2-2.3,0.5-4.1,0.7-5.4c-9.2,9.2-17.9,15-25.3,17c-6.7,1.5-9.3-2.2-8.9-8.6
		c1.3-11.1,10.9-27.6,18.1-37c1.6-2.1,4.3-4.2,5.6-4.7c1-0.4,2-0.3,2.4,1c0.3,0.7,0.4,1.8,0.5,2.7c0,1.1,0.1,2,0.1,2.4
		c-0.1,0.6-0.4,1.8-1.2,2c-0.3,0.1-0.7,0.2-1.2,0.2c-0.4,0-0.9-0.1-1.2,0c-0.3,0.1-1.2,0.4-2.4,1.8c-4.9,6.2-12.4,17.9-13.7,30.4
		c-0.3,4.2,1.4,5.4,4.2,4.8c4.3-1.2,14.1-8,20.7-15.6c0.4-0.4,0.7-0.8,1.1-1.3c-0.9,0.2-1.6,0.8-4,2c-2.4,1.3-3.4,2.3-5.1,2.7
		c-1.7,0.3-2.6-1.1-2.6-2.3c0.1-1.2,1.3-3.2,2.7-3.6c1.4-0.3,3.2-1.1,5.9-2.4c3.7-1.8,8.7-4.2,9.7-4.5c0.5-0.1,1.2,0.5,1.2,1.5
		C133.6,231.5,133.5,231.6,132.9,234.8z"/>
	<path class="st3" d="M145.3,220.6c0.9-0.8,0.7-2,2.5-2.4c1.7-0.3,2,0.3,3.6,0c3.3-0.5,10.1,2.6,9.5,13.3
		c-1.2,10.6-9.4,16.3-15.1,17.6c-5.8,1-10.1-0.7-9.5-9.6C136.8,233.4,140.6,225.5,145.3,220.6z M153.4,234.1
		c0.4-5.6-1.3-10.5-3.2-10.4c-2,0.6-5.7,7.3-6.4,13.9c-0.4,5.4,1,7,3.2,6.7C149.4,243.8,152.8,239.7,153.4,234.1z"/>
	<path class="st3" d="M163.9,223.7c-1.2,0.2-1.9-0.9-1.9-1.8c0.2-1.5,0.8-3.1,2.4-3.4c0.9-0.2,1.7-0.7,2.5-0.8
		c0.4-4.6-0.3-7.9,0.1-11.4c0.2-2,1.4-4.1,3.7-4.7c2.5-0.5,3.5,1.2,3.4,2.9c-0.1,1.7-0.1,7.4-0.4,11c0.9-0.3,1.4-0.9,2.5-1.1
		c1.4-0.2,2.3,0.9,2.3,2.7c-0.1,1.4-0.9,2.5-1.6,2.8c-1.1,0.5-2.3,0.9-3,1.1c-0.1,1.4-0.4,9-0.4,11.1c-0.1,2.2-0.3,9.4-0.4,10.5
		c-0.1,1.1-1.5,2.6-3.3,2.9c-2.2,0.3-3.7-0.2-3.9-1.4c0-1.3,0.3-7.4,0.5-10c0.2-2.6,0.4-9.6,0.6-11.2
		C165.9,223.2,164.9,223.5,163.9,223.7z"/>
	<path class="st3" d="M182,220.8c-1.2,0.1-1.9-0.9-1.9-1.9c0.2-1.5,0.8-3.1,2.4-3.5c0.9-0.2,1.7-0.6,2.5-0.8
		c0.4-4.7-0.2-8.2,0.1-11.9c0.2-2.1,1.4-4.3,3.7-4.8c2.5-0.4,3.5,1.4,3.4,3.2c-0.1,1.8-0.2,7.8-0.5,11.5c0.9-0.3,1.4-0.9,2.5-1.1
		c1.4-0.2,2.3,1,2.2,2.8c-0.1,1.5-0.9,2.5-1.6,2.9c-1.1,0.5-2.3,0.8-3,1.1c-0.1,1.4-0.4,9.2-0.4,11.3c-0.1,2.2-0.3,9.4-0.4,10.5
		c-0.1,1.1-1.5,2.6-3.3,2.8c-2.2,0.3-3.7-0.2-3.9-1.5c0-1.2,0.2-7.4,0.5-10c0.2-2.7,0.5-9.8,0.6-11.4
		C184.1,220.4,183.1,220.7,182,220.8z"/>
	<path class="st3" d="M211.3,235.3c-3.1,3.1-7.6,4.7-10.9,5.1c-3.3,0.3-5-0.2-4.9-2.5c0.4-4,3.3-7.7,7.3-11.2c3.2-3.1,6.7-6.1,7.7-7
		c0.6-0.5,1.2-0.9,1.7-1c-0.1-2.5-0.8-5.1-2.9-5c-1.9,0.3-4.6,2.4-5.8,3.8c-0.2,0.2-1.2,1.5-1.8,1.7c-1.2,0.1-2.8-0.9-2.7-2.9
		c0.1-1.1,0.6-1.9,1.3-2.6c2.2-2,8.6-6,11.1-6.4c2.1-0.2,5.8,0.3,7.5,11.3c0.8,4.4,0.3,10.4,0.2,11.7c-0.1,1.3-0.6,4.9-1.7,7.3
		c-0.4,0.8-2.4,1.3-3.1,1.4c-1.2,0.1-3.2,0.1-3.1-1.9C211.1,236.5,211.2,235.9,211.3,235.3z M204.4,230.9c-1.3,1.7-1.5,2.5-1.6,3.6
		c-0.1,0.9,0.5,1.4,1.5,1.3c3.1-0.4,5-3,5.7-3.5c1-0.6,1.9-1.1,1.8-1c0.2-2.1,0.4-4.8,0.5-7.6C210.3,225.3,206.5,228.2,204.4,230.9z
		"/>
	<path class="st3" d="M244.6,228c-0.2,2.5,0.2,3.7,2.5,3.6c2.4-0.2,4.5-1.6,5.7-2.3c1.1-0.7,3-3.3,5-3.5c1.9,0,2.9,1,2.8,2
		c-0.7,4-10.4,7.7-15.4,8.1c-6.9,0.2-7.9-3.1-7.6-6.6c1.6-13.1,13.7-24.5,16.2-25.1c1.8-0.1,2.9,0.7,2.7,3.5
		c-0.2,2.1-0.8,4.1-2.6,4.7C248.4,214.4,245.1,223.2,244.6,228z"/>
	<path class="st3" d="M277.5,231.3c-3.1,2.9-7.5,4.1-10.8,4.3c-3.2,0.1-4.9-0.6-4.9-2.9c0.4-4,3.3-7.5,7.2-10.8
		c3.2-2.9,6.7-5.8,7.6-6.6c0.6-0.5,1.2-0.8,1.7-0.9c-0.1-2.6-0.8-5.5-2.9-5.5c-1.9,0.1-4.6,2.1-5.8,3.5c-0.2,0.2-1.2,1.5-1.8,1.6
		c-1.1,0-2.8-1.2-2.7-3.3c0.1-1.2,0.6-2,1.3-2.7c2.2-1.9,8.6-5.6,11.1-5.8c2.1,0,5.7,1.1,7.4,12.7c0.7,4.7,0.3,10.8,0.2,12.1
		c-0.1,1.3-0.6,4.9-1.7,7.2c-0.4,0.7-2.4,1.1-3.1,1.1c-1.1,0-3.2-0.2-3.1-2.1C277.3,232.6,277.4,232,277.5,231.3z M270.6,226.4
		c-1.3,1.7-1.5,2.5-1.6,3.6c-0.1,1,0.5,1.4,1.5,1.4c3.1-0.2,5-2.6,5.7-3c1-0.5,1.9-1,1.8-0.9c0.2-2.1,0.4-4.9,0.5-7.8
		C276.5,221,272.7,223.8,270.6,226.4z"/>
	<path class="st3" d="M289.5,212.3c-1.2,0-1.9-1.3-1.8-2.4c0.2-1.7,0.8-3.4,2.4-3.5c0.9,0,1.7-0.4,2.5-0.5c0.4-5.3-0.1-9.5,0.3-13.8
		c0.3-2.4,1.5-4.8,3.7-4.9c2.5,0.1,3.4,2.4,3.3,4.5c-0.2,2.1-0.3,9-0.6,13.1c0.9-0.2,1.3-0.8,2.4-0.8c1.4,0.1,2.2,1.5,2.2,3.5
		c-0.1,1.6-0.9,2.6-1.6,2.9c-1.1,0.4-2.3,0.6-2.9,0.7c-0.1,1.5-0.5,9.8-0.4,12c-0.1,2.3-0.3,9.6-0.4,10.7c-0.1,1.1-1.5,2.3-3.2,2.4
		c-2.2,0-3.7-0.7-3.8-1.9c0-1.2,0.3-7.4,0.5-10.1c0.2-2.7,0.5-10.4,0.6-12.1C291.5,212.1,290.5,212.2,289.5,212.3z"/>
	<path class="st3" d="M343.3,221.6c0.4-6-0.2-10.7-1.7-11c-2.8,0.1-7.5,6.7-8.1,11.1c-0.2,2.7-0.4,6.2-0.2,8
		c0.2,1.6,0.6,3.6,0.5,4.9c-0.2,1.4-1.2,2-2.5,2c-3-0.2-3.2-0.6-3.6-1.4c-0.5-1.9-1-12.4-1.1-15.7c0.1-6.7-0.5-21.9,0.2-31.9
		c0.7-7.8,2.4-10.4,5.9-10.2c2.1,0.2,3.1,2.5,2.9,5.3c-0.3,2.8-0.9,6.5-1.5,13.9c-0.4,5.1-0.2,11.6-0.5,16.5c1.1-3.4,5.8-9,11.7-8.7
		c4.1,0.5,6.2,7,5.3,18.5c-0.2,2.2-1.3,8.1-1.6,10.7c-0.2,1.7-1.2,3.2-4.3,3c-2.1-0.3-3.1-1.3-3-2.8
		C341.8,231.4,342.8,227.4,343.3,221.6z"/>
	<path class="st3" d="M372.5,194.5c2-4,3.3-8.4,4.9-8.4c2.2,0.5,3.7,3.6,3.6,5.2c-0.1,1-1.4,4.6-3.1,7.7c-1.5,2.4-4.6,4.6-5.6,4.6
		c-1.5-0.2-2.8-1.3-2.7-3.2C369.8,198.6,371.7,195.9,372.5,194.5z"/>
	<path class="st3" d="M377.2,228.3c-0.2,3.5,1.2,5.4,2.1,5.6c0.9,0.1,2.2-0.6,4.1-2.1c1.2-1,2.7-2.6,4.5-3.9
		c1.1-0.8,1.8-1.2,2.6-1.1c1.6,0.2,2.2,1,2.1,2.3c-0.4,2.4-4.8,4.9-7.4,6.4c-1.4,0.8-6.8,4-8.5,4c-4.4-0.7-5.9-6.2-5.6-10.7
		c0,0,0,0,0-0.1c-0.4,0.1-0.6,0.1-1.3,0.1c-0.6-0.1-1.1-1.2-1.1-2c0.2-2,0.7-2.3,2.8-3.1c0-0.5,0.1-1,0.1-1.5
		c0.9-9,4.8-15.9,6.7-15.9c7.2,1.1,11.3,7.6,11.2,10.6c-0.2,2.1-0.3,4.1-2.8,5.7c-2.1,1.2-8.2,3.8-9.4,4.6
		C377.3,227.6,377.2,228,377.2,228.3z M377.7,221.5c1.3-0.6,5-2.1,6.1-2.7c0.1-2.4-1.1-4.5-3.3-4.8C379.3,214,378,218.9,377.7,221.5
		z"/>
	<path class="st3" d="M409.1,241c0.1-0.9,1.4-12.8,1.6-16c0.1-2.9-0.4-6.4-2.1-6.8c-1.8-0.1-6,4-6.6,8.8c-0.5,6.5,1,11.1,0.8,14.1
		c-0.2,1.3-2.7,1.6-3.7,1.6c-1.7-0.3-3.1-1-3.4-1.8c-0.5-2-0.6-8.3-0.6-10.6c0.1-7-0.7-11.5-0.5-14.6c0.3-2.5,2.8-3.7,3.9-3.6
		c2.4,0.4,3.7,1.2,3.8,6.7c2.1-3.4,5.6-6.6,9-6.2c2.4,0.5,4.5,2.3,5.2,5.6c2.4-2.9,6.9-4.2,10.3-3.6c3.3,0.8,4.6,6.3,4.6,10.2
		c0,2.7-0.2,7.4-0.4,10.3c-0.2,2.9,0,6-0.1,7.8c-0.2,1.8-1.2,3.2-4.4,2.7c-3.1-0.6-3.4-2.1-3.3-3.8c0.3-3.8,1.2-10.9,1.5-14.3
		c0.2-3,0.5-7.2-1.6-7.7c-2.1-0.3-3.3,0.5-6,3c0,0.3-0.2,8-0.3,10.6c-0.2,2.9-0.2,6-0.3,7.8c-0.2,1.7-1,3.1-4.1,2.8
		C409.7,243.5,409,242.7,409.1,241z"/>
	<path class="st3" d="M459.5,248.3c-3,2.4-7.4,2.7-10.6,2.1c-3.2-0.7-4.8-1.9-4.8-4.2c0.4-4.1,3.3-7,7.1-9.3
		c3.1-2.1,6.5-3.9,7.5-4.4c0.6-0.3,1.1-0.4,1.6-0.4c-0.2-2.3-0.8-4.9-2.9-5.5c-1.9-0.3-4.5,0.7-5.6,1.6c-0.2,0.2-1.1,1.1-1.8,1
		c-1.1-0.3-2.7-1.7-2.6-3.6c0.1-1,0.6-1.6,1.2-2c2.1-1.1,8.3-2.6,10.7-2.1c2,0.5,5.7,1.8,7.4,12.5c0.8,4.4,0.4,10.2,0.3,11.5
		c-0.1,1.3-0.6,4.9-1.7,7.3c-0.4,0.7-2.3,0.7-3.1,0.5c-1.1-0.3-3.1-1-3-3.1C459.3,249.5,459.4,248.9,459.5,248.3z M452.8,241.6
		c-1.3,1.4-1.5,2.1-1.6,3.3c-0.1,1,0.5,1.6,1.5,1.8c3,0.5,4.9-1.6,5.6-1.9c1-0.3,1.9-0.6,1.7-0.5c0.2-2.1,0.4-4.8,0.4-7.5
		C458.5,237.7,454.9,239.5,452.8,241.6z"/>
	<path class="st3" d="M475.7,208c1.5,0.5,3.4,1.9,3.4,3.6c-0.1,1.8-0.7,5-1.1,9.3c-0.2,3.6,0.7,15.8,0.6,19.7
		c0,5.1,1.2,12.1,1.1,14.1c-0.2,2-1.6,2.5-3.7,2.1c-1.9-0.5-4.1-1.5-4.2-3.3c0-2.1-0.4-8.4-0.3-14.5c0.1-6.1-1.3-17.1-0.7-25.5
		C471.4,208.2,473.1,207.2,475.7,208z"/>
	<path class="st3" d="M488.2,212.2c1.5,0.5,3.4,1.9,3.4,3.5c-0.1,1.6-0.7,4.7-1.1,8.8c-0.2,3.4,0.7,15.4,0.6,19.2
		c0,5.1,1.2,12.2,1.1,14.2c-0.2,2-1.6,2.6-3.7,2.1c-1.9-0.5-4.1-1.6-4.2-3.5c0-2.2-0.4-8.6-0.3-14.7c0-6.1-1.3-16.8-0.8-24.7
		C483.9,212.2,485.6,211.3,488.2,212.2z"/>
	<path class="st3" d="M309.1,226.6c-0.2,2.5,0.2,3.7,2.5,3.9c2.4,0,4.5-1.3,5.7-1.9c1.1-0.6,3-3.1,4.9-3.1c1.9,0.1,2.9,1.2,2.8,2.3
		c-0.7,4-10.3,6.9-15.3,7c-6.9-0.3-7.8-3.7-7.6-7.2c1.6-13.2,13.7-23.9,16.2-24.2c1.7,0.1,2.9,1,2.7,3.8c-0.2,2.1-0.8,4.1-2.6,4.5
		C313,213.1,309.7,221.8,309.1,226.6z"/>
	<g>
		<g>
			<path class="st4" d="M105.7,247.7c-1.4,1-2.7,1.9-3.9,2.6c0.5-2.9,1.4-5.7,2.5-8.4c0,0.2-0.1,0.4-0.1,0.5c0,0.1,0,0.3,0,0.4
				C104.2,244.6,104.7,246.3,105.7,247.7z M131.9,228.8c-1.5-1.3-3.4-1.9-5.2-1.6c-0.3,0-0.6,0.1-0.8,0.2c-1,0.3-2.8,1.2-8,3.8
				l-2.1,1c-1.5,0.7-3.6,1.7-4.7,2c-0.1,0-0.1,0-0.2,0.1c-1.8,0.5-3.3,1.7-4.4,3.1c2.5-5,5.3-8.9,6.7-10.8c0.9-0.1,1.7-0.3,2-0.4
				c0.1,0,0.2-0.1,0.3-0.1c3.2-1.1,4.6-4.2,4.8-6.7c0-0.1,0-0.1,0-0.2c0-0.6,0-1.1-0.1-1.8c0-0.3-0.1-0.7-0.1-1.2c0-0.2,0-0.3,0-0.5
				l-0.1-0.4c-0.1-1-0.3-2.2-0.7-3.3c-0.6-1.9-1.9-3.3-3.6-4.1c-1.8-0.8-3.9-0.9-5.9-0.1c-0.1,0-0.1,0-0.2,0.1
				c-2.6,1.1-5.9,4.1-7.7,6.4c-5.8,7.8-17.1,25.9-18.5,39.2c0,0.1,0,0.2,0,0.3c-0.4,6.7,2.1,10.2,4.2,11.9c2,1.7,5.6,3.4,11.4,2
				c0.1,0,0.2,0,0.3-0.1c5.7-1.6,11.6-4.9,17.8-9.9c1.2,2.6,4.1,4.9,8.6,3.9c0.1,0,0.1,0,0.2,0c3-0.7,6.2-3.4,6.6-7.2
				c0-0.1,0-0.3,0-0.4c0.1-1-0.1-1.9-0.2-2.9c-0.1-1-0.3-2-0.2-3c0.2-2.1,0.6-5.1,1.2-8.3c0,0,0.3-1.6,0.3-1.6
				c0.3-1.7,0.4-2.2,0.5-3.6c0-0.1,0-0.1,0-0.2C134.3,232.2,133.5,230.2,131.9,228.8z M119.3,211.8c0,0.1,0.1,0.2,0.1,0.2
				c0,0,0,0.1,0,0.1C119.4,212,119.4,211.9,119.3,211.8z"/>
			<path class="st4" d="M155.4,220.3c-2.9-2.6-6.9-3.9-10.3-3.4c-0.7-0.1-2-0.3-3.8,0.1c-0.1,0-0.2,0-0.2,0.1
				c-3.5,0.9-4.8,3.3-5.3,4.2c-5.2,5.7-9.3,14.5-10,21.6c0,0.1,0,0.2,0,0.2c-0.3,5.7,1.1,9.9,4.1,12.6c2.8,2.5,6.8,3.4,11.9,2.5
				c0.1,0,0.2,0,0.3-0.1c8.2-1.9,17.6-9.6,18.9-22.2c0-0.1,0-0.2,0-0.3C161.2,227.3,158.1,222.7,155.4,220.3z"/>
			<path class="st4" d="M175.2,214.7c-0.5-0.5-1.2-0.9-1.8-1.2c0-0.4,0-0.9,0-1.3c0-1.3,0-2.6,0.1-3.2c0.1-2.8-0.9-5.2-2.8-6.8
				c-1.9-1.6-4.5-2.2-7.2-1.7c-0.1,0-0.2,0-0.3,0.1c-4.2,1.1-7.2,4.8-7.7,9.4c-0.2,2.1-0.1,4,0,5.9c0,0.7,0.1,1.3,0.1,2
				c-2.7,1.4-4.5,4.1-4.8,7.5c0,0.1,0,0.2,0,0.3c-0.1,2.1,0.8,4.3,2.4,5.7c0.6,0.6,1.4,1,2.2,1.3c-0.1,1.9-0.1,3.8-0.2,4.8
				c-0.2,2.7-0.4,8.9-0.4,10.3c0,0.2,0,0.4,0.1,0.7c0.3,1.8,1.2,3.5,2.7,4.6c1.3,1,3.6,2,7.4,1.4c0.1,0,0.2,0,0.2,0
				c3.9-0.8,7.1-4.1,7.6-7.7c0-0.1,0-0.2,0-0.3c0.1-1.3,0.2-8.7,0.3-10.6c0-0.1,0-0.2,0-0.3c0-1.1,0-4.3,0.1-6.8c0,0,0.1,0,0.1,0
				c2.6-1.4,4.3-4.3,4.5-7.4c0-0.1,0-0.1,0-0.2C177.9,218.5,177,216.2,175.2,214.7z"/>
			<path class="st4" d="M193,211.8c-0.5-0.5-1.2-0.9-1.8-1.2c0-0.5,0-1.1,0-1.6c0-1.5,0-2.8,0.1-3.4c0.1-2.8-0.9-5.4-2.7-7
				c-1.9-1.6-4.4-2.3-7-1.8c-0.1,0-0.2,0-0.3,0.1c-4.3,1-7.3,4.7-7.8,9.6c-0.2,2.2-0.1,4.2,0,6.1c0,0.7,0.1,1.5,0.1,2.2
				c-2.7,1.3-4.5,4.1-4.8,7.6c0,0.1,0,0.2,0,0.3c-0.1,2.1,0.8,4.3,2.4,5.7c0.7,0.6,1.4,1.1,2.2,1.4c-0.1,2-0.1,4-0.2,5.1
				c-0.2,2.7-0.4,8.9-0.4,10.3c0,0.2,0,0.4,0.1,0.6c0.5,3.6,3.8,6.9,10,6.1c0.1,0,0.2,0,0.3,0c3.9-0.7,7.3-3.9,7.7-7.6
				c0-0.1,0-0.2,0-0.3c0.1-1.3,0.2-8.6,0.3-10.6c0-0.1,0-0.2,0-0.3c0-1.1,0-4.4,0.1-7c0,0,0,0,0.1,0c2.6-1.4,4.4-4.3,4.6-7.5
				c0-0.1,0-0.1,0-0.2C195.6,215.7,194.7,213.3,193,211.8z"/>
			<path class="st4" d="M217.4,221.1c-2.3-13.9-8.6-16.1-13.6-15.5c-0.1,0-0.2,0-0.3,0.1c-4.2,0.8-11.5,5.9-13.6,7.8
				c-0.1,0.1-0.2,0.2-0.2,0.2c-1.6,1.7-2.5,3.7-2.7,5.9c0,0.1,0,0.2,0,0.3c-0.1,2.4,0.8,4.7,2.5,6.3c0.6,0.5,1.2,1,1.9,1.3
				c-3.2,3.2-6.9,7.8-7.4,13.3c0,0.1,0,0.3,0,0.4c0,2.4,0.8,4.5,2.5,6c2.6,2.3,6.1,2.2,8.5,2c0,0,0.1,0,0.1,0
				c1.2-0.2,4.3-0.7,7.7-2.4c1.5,0.8,3.3,1.1,5.4,0.9c0.1,0,0.1,0,0.2,0c1.3-0.2,5.6-0.9,7.3-4.4c0-0.1,0.1-0.2,0.1-0.3
				c1.6-3.7,2-8.4,2.1-9C217.9,232.7,218.3,226.2,217.4,221.1z M199.8,234.6C199.8,234.6,199.8,234.6,199.8,234.6
				C199.8,234.7,199.8,234.7,199.8,234.6C199.8,234.7,199.8,234.7,199.8,234.6z M199.9,235.4c0,0,0,0.1,0,0.1h0
				C199.9,235.5,199.9,235.5,199.9,235.4z"/>
			<path class="st4" d="M256.5,225.6c-1.6-1.6-3.9-2.4-6.4-2.3c-0.1,0-0.3,0-0.4,0c-2.1,0.2-3.8,1.3-5.1,2.3
				c1.1-2.3,2.4-4.2,3.5-4.6c2.6-0.9,5.8-3.2,6.3-9.4c0-0.1,0-0.1,0-0.2c0.2-3-0.6-5.3-2.3-7c-1.1-1.1-3.1-2.4-6.2-2.2
				c-0.3,0-0.6,0.1-0.9,0.1c-5.1,1.1-18.3,14.7-19.9,29.5c0,0.1,0,0.2,0,0.3c-0.2,3.7,0.7,6.7,2.9,8.9c2.4,2.4,5.8,3.5,10.4,3.3
				c0.1,0,0.2,0,0.4,0c4.8-0.5,18.5-4.5,19.9-12.7c0-0.3,0.1-0.5,0.1-0.8C258.6,228.9,257.9,227.1,256.5,225.6z"/>
			<path class="st4" d="M282.2,216.8c-1.7-11.4-6.1-17.2-12.9-17c-0.1,0-0.3,0-0.4,0c-4.3,0.4-11.8,5.3-13.9,7.2
				c-0.1,0.1-0.2,0.2-0.3,0.3c-1.6,1.7-2.6,3.7-2.8,6c0,0.1,0,0.2,0,0.3c-0.1,2.5,0.8,4.7,2.4,6.5c0.7,0.7,1.5,1.3,2.3,1.7
				c-3.3,3.1-7.2,7.6-7.7,13.4c0,0.1,0,0.3,0,0.4c0,2.9,1.2,4.8,2.3,5.8c2.4,2.4,5.8,2.6,8.2,2.5c0,0,0.1,0,0.1,0
				c1.2-0.1,4.3-0.4,7.7-1.8c1.4,0.9,3.2,1.4,5.3,1.3c0.1,0,0.1,0,0.2,0c1.3-0.1,5.8-0.5,7.7-4.1c0-0.1,0.1-0.2,0.1-0.3
				c1.6-3.5,2-8.1,2.1-9C282.6,228.7,283.1,222.1,282.2,216.8z M270.1,224.6c-0.1,0-0.2,0-0.3,0c0,0,0,0,0,0
				C269.9,224.6,270,224.6,270.1,224.6z M264.6,229.8c0,0,0,0.1,0,0.1C264.6,229.9,264.6,229.8,264.6,229.8z M264.7,230.8
				C264.7,230.8,264.7,230.8,264.7,230.8C264.7,230.8,264.7,230.8,264.7,230.8z"/>
			<path class="st4" d="M296.4,202.2c0-1,0.1-2,0.1-2.9c0-1.7,0.1-3.3,0.1-4c0.1-2.9-0.8-5.6-2.5-7.5c-1.6-1.7-3.8-2.7-6.1-2.7
				c-0.1,0-0.3,0-0.4,0c-4.7,0.3-8.2,4.2-8.8,9.8c-0.2,2.5-0.1,4.8-0.1,7c0,0.9,0,1.8,0,2.7c-2.3,1.1-4.4,3.5-4.8,7.8
				c0,0.1,0,0.2,0,0.3c-0.1,2.1,0.7,4.3,2.1,5.8c0.7,0.7,1.5,1.3,2.4,1.7c-0.1,2.4-0.2,5-0.3,6.3c-0.2,2.8-0.4,9-0.4,10.5
				c0,0.2,0,0.4,0.1,0.6c0.4,3,3.1,6.6,9.2,6.6c0.1,0,0.2,0,0.3,0c4.2-0.2,7.9-3.3,8.4-7.2c0-0.1,0-0.2,0-0.3
				c0.1-1.3,0.3-8.9,0.3-10.8c0-0.1,0-0.2,0-0.3c0-1.2,0-4.6,0.1-7.4c2.6-1.3,4.4-4.2,4.6-7.5c0-0.1,0-0.1,0-0.2
				C300.8,206.6,299.1,203.6,296.4,202.2z"/>
			<path class="st4" d="M313.7,222.3c-0.2,0-0.3,0-0.5,0c-2.5,0.1-4.5,1.4-5.9,2.5c1.1-2.7,2.6-4.9,3.7-5.2c0,0-0.1,0-0.1,0
				c2.2-0.6,6.1-2.5,6.7-9.4c0-0.1,0-0.1,0-0.2c0.2-2.9-0.6-5.2-2.1-6.9c-1-1.1-2.8-2.5-5.8-2.6c-0.3,0-0.6,0-0.9,0
				c-5.9,0.8-18.8,14.3-20.4,28.8c0,0.1,0,0.2,0,0.3c-0.1,1.4-0.3,5.5,2.7,8.9c2.2,2.4,5.6,3.8,10.1,4c0.1,0,0.3,0,0.4,0
				c4.9-0.1,18.8-3.2,20.2-11.6c0-0.3,0.1-0.5,0.1-0.8C321.8,225.9,318.4,222.5,313.7,222.3z"/>
			<path class="st4" d="M336.4,201.2c-0.2,0-0.3,0-0.5,0c-2.1-0.1-4,0.4-5.8,1c0-0.9,0.1-1.8,0.1-2.7c0.3-4.4,0.7-7.4,1-9.8
				c0.2-1.4,0.3-2.6,0.4-3.7c0,0,0-0.1,0-0.1c0.3-5.9-2.9-10.4-7.8-10.9c-0.1,0-0.2,0-0.4,0c-10-0.4-11,10.9-11.3,15.1
				c-0.5,7-0.2,16-0.1,23.3c0.1,3.4,0.2,6.4,0.1,8.5c0,0.1,0,0.1,0,0.2c0,0.1,0.6,13.5,1.4,16.7c0.1,0.4,0.2,0.7,0.4,1
				c1.9,3.8,5.1,4.3,8.3,4.4c0.1,0,0.3,0,0.4,0c2.7-0.1,4.9-1.3,6.3-3.1c1.3,1.5,3.2,2.6,5.9,2.9c0.2,0,0.4,0,0.5,0
				c5.5,0.2,9.4-3,9.9-8c0.1-1,0.4-2.9,0.7-4.8c0.4-2.3,0.7-4.5,0.8-5.8C347.8,206.5,341.7,201.9,336.4,201.2z"/>
			<path class="st4" d="M368.2,183.3c-0.3-0.1-0.6-0.1-0.8-0.1c-5-0.2-7,4.5-8.6,8.3c-0.4,1-0.9,2-1.3,3c-0.1,0.2-0.3,0.5-0.5,0.9
				c-1.4,2.4-2.6,4.5-2.9,6.9c0,0.1,0,0.3,0,0.4c-0.2,4.5,3,8.2,7.5,8.8c0.2,0,0.4,0,0.6,0c4.6,0.1,9.1-5.3,10.2-7.1
				c0.1-0.1,0.2-0.3,0.2-0.4c1.5-2.9,3.3-7.3,3.5-9.4c0-0.2,0-0.4,0-0.5C376.3,190.2,373.5,184.3,368.2,183.3z"/>
			<path class="st4" d="M383.9,223.8c0.6-1.7,0.7-3.2,0.8-4.4l0-0.2c0-0.1,0-0.2,0-0.4c0-5.6-6-14.3-15.8-15.8c-0.3,0-0.7-0.1-1-0.1
				c-6.8,0.2-10.5,11.4-11.5,19.3c-1.5,1.2-2.7,3-2.9,6c0,0.1,0,0.2,0,0.2c-0.1,2.1,0.8,4.5,2.5,6c0.8,5.7,4,11.1,10.2,12
				c0.3,0,0.5,0.1,0.8,0.1c2.3,0,4.9-1.1,10.7-4.5l0.4-0.2c3.6-2.1,9.2-5.3,9.9-10.3c0-0.2,0-0.3,0.1-0.5
				C388.2,227.7,386.6,225.1,383.9,223.8z M360,225.2c-0.1,0-0.2,0-0.3,0.1C359.8,225.3,359.9,225.2,360,225.2z"/>
			<path class="st4" d="M425.9,226c-0.1-6.1-2.4-13.8-8.8-15.4c-0.2,0-0.3-0.1-0.5-0.1c-3.1-0.5-6.3,0-9.2,1.2
				c-1.6-1.5-3.6-2.6-5.8-3c-0.1,0-0.2,0-0.4-0.1c-2.7-0.3-5.2,0.4-7.4,1.7c-1.2-1-2.8-1.8-5-2.1c-0.1,0-0.3,0-0.4,0
				c-4-0.3-9,3.3-9.6,8.5c0,0.1,0,0.2,0,0.3c-0.1,1.7,0,3.7,0.2,5.9c0.2,2.4,0.4,5.2,0.4,8.7c0,1.5,0.2,8.8,0.8,11.6
				c0.1,0.3,0.2,0.6,0.3,0.9c1.2,2.7,4,4.5,7.7,5c0.1,0,0.2,0,0.2,0c2.3,0.2,4.8-0.3,6.7-1.7c1.2,1.3,3.1,2.3,6.1,2.8
				c0.1,0,0.2,0,0.3,0c2.9,0.3,5.3-0.3,7.1-1.8c0.1,0,0.1-0.1,0.2-0.2c1.3,1.7,3.4,2.9,6.1,3.4c0.1,0,0.2,0,0.2,0
				c3,0.4,5.5-0.2,7.4-1.7c1.2-1,2.8-2.8,3.1-6c0-0.1,0-0.1,0-0.2c0.1-1,0.1-2.2,0-3.6c0-1.3,0-2.8,0-4.1
				C425.8,233.3,425.9,228.6,425.9,226z"/>
			<path class="st4" d="M460.5,233.6c-1.7-9.8-5.4-15.1-11.5-16.5c-0.1,0-0.2,0-0.3-0.1c-3.9-0.7-11.3,1.2-14.1,2.8
				c-0.1,0.1-0.3,0.2-0.4,0.2c-2.1,1.4-3.4,3.5-3.6,6.1c0,0.1,0,0.2,0,0.3c-0.1,3.5,1.9,6.4,4.4,8c-2.8,2.1-6.8,5.9-7.3,11.9
				c0,0.1,0,0.3,0,0.4c0,2.9,1.1,7.9,9.1,9.6c0,0,0.1,0,0.1,0c2.6,0.5,5.3,0.4,7.7-0.1c1.2,1.3,3,2.2,5,2.7c0.1,0,0.1,0,0.2,0
				c3,0.6,7.1,0,8.9-3.4c0.1-0.1,0.1-0.2,0.2-0.3c1.6-3.6,2.1-8.4,2.1-9C461.1,244.6,461.4,238.5,460.5,233.6z M447.4,239.5
				c0.5-0.1,1-0.2,1.6-0.1v0C448.5,239.4,447.9,239.4,447.4,239.5z M443.2,244.8c0,0,0,0.1,0,0.1
				C443.2,244.8,443.2,244.8,443.2,244.8z"/>
			<path class="st4" d="M473.1,249.7c-0.3-2.7-0.7-6-0.7-8.6c0-1.8-0.2-5-0.4-8.8c-0.2-3.8-0.5-8.5-0.4-10.2
				c0.2-2.2,0.4-4.1,0.6-5.6c0.2-1.4,0.3-2.6,0.4-3.6c0-0.1,0-0.2,0-0.3c-0.1-4.4-3.6-7.5-7.1-8.7c-0.1,0-0.1,0-0.2-0.1
				c-3.5-1-6-0.1-7.4,0.9c-3.3,2.3-4,6.4-4.3,9.3c0,0,0,0.1,0,0.1c-0.3,5.4,0.1,11.7,0.5,17.1c0.2,3.1,0.4,6.1,0.4,8.2
				c0,4,0.2,8,0.3,10.9c0.1,1.5,0.1,2.7,0.1,3.3c0,0.1,0,0.2,0,0.3c0.1,1.9,1.1,6.5,8.3,8.3c0.1,0,0.1,0,0.2,0
				c3.4,0.7,5.8-0.2,7.1-1.2c1.8-1.3,2.9-3.3,3.1-5.7c0-0.1,0-0.2,0-0.4C473.6,253.8,473.4,252.4,473.1,249.7z"/>
			<path class="st4" d="M485.5,252.6c-0.3-2.7-0.7-6.1-0.7-8.6c0-1.9-0.2-5.2-0.4-8.8c-0.2-3.6-0.5-8.1-0.4-9.7
				c0.2-2.1,0.4-3.8,0.6-5.3c0.2-1.4,0.3-2.5,0.4-3.4c0-0.1,0-0.2,0-0.4c-0.1-4.2-3.6-7.3-7.1-8.5c-0.1,0-0.1,0-0.2-0.1
				c-3.6-1.1-6.1-0.2-7.6,0.8c-3.3,2.2-4,6.1-4.2,8.9c0,0,0,0.1,0,0.1c-0.3,5.1,0.1,11.1,0.5,16.4c0.2,3.1,0.5,6.1,0.5,8.2
				c0,3.9,0.2,8,0.3,10.9c0.1,1.5,0.1,2.8,0.1,3.4c0,0.1,0,0.2,0,0.3c0.1,1.9,1.1,6.5,8.2,8.4c0.1,0,0.1,0,0.2,0
				c3.4,0.8,5.8-0.1,7.1-1.1c1.8-1.3,3-3.3,3.2-5.8c0-0.1,0-0.2,0-0.4C486,256.9,485.8,255.3,485.5,252.6z"/>
		</g>
		<path class="st3" d="M128,238.8c-0.6,3.1-1,6.4-1.2,8.9c-0.2,2.6,0.4,4.8,0.4,6c-0.1,1.2-1.6,2.2-2.5,2.5
			c-0.9,0.2-2.1,0.3-2.6-1.2c-0.3-0.7-0.3-2.3-0.2-4.3c0.2-2.3,0.4-4,0.7-5.3c-8.9,9.1-17.4,14.9-24.6,17c-6.5,1.5-9.1-2.1-8.8-8.3
			c1.2-10.9,10.4-27.1,17.4-36.4c1.6-2,4.1-4.2,5.4-4.7c1-0.4,2-0.3,2.4,0.9c0.3,0.7,0.4,1.7,0.5,2.7c0.1,1.1,0.2,2,0.1,2.3
			c-0.1,0.6-0.4,1.8-1.1,2c-0.3,0.1-0.7,0.2-1.2,0.2c-0.4,0-0.9-0.1-1.2,0c-0.3,0.1-1.2,0.4-2.3,1.8c-4.7,6.1-12,17.7-13.2,29.9
			c-0.2,4.1,1.4,5.3,4.1,4.6c4.2-1.3,13.7-8,20.1-15.5c0.4-0.4,0.7-0.8,1.1-1.3c-0.9,0.2-1.6,0.8-3.9,2c-2.3,1.3-3.3,2.2-5,2.7
			c-1.7,0.3-2.6-1.1-2.5-2.2c0.1-1.1,1.2-3.1,2.6-3.5c1.3-0.3,3.2-1.1,5.8-2.4c3.6-1.8,8.4-4.2,9.5-4.5c0.5-0.1,1.2,0.5,1.2,1.5
			C128.6,235.6,128.5,235.7,128,238.8z"/>
		<path class="st3" d="M140,224.8c0.8-0.8,0.7-2,2.4-2.4c1.7-0.3,2,0.3,3.5,0c3.2-0.5,9.9,2.5,9.4,12.9c-1.1,10.4-9,16.1-14.7,17.4
			c-5.7,1-9.9-0.6-9.4-9.3C131.8,237.4,135.5,229.6,140,224.8z M148.1,237.9c0.3-5.5-1.4-10.3-3.3-10.1c-1.9,0.6-5.5,7.2-6.1,13.7
			c-0.3,5.3,1.1,6.9,3.2,6.6C144.3,247.4,147.5,243.5,148.1,237.9z"/>
		<path class="st3" d="M158.2,227.7c-1.2,0.2-1.9-0.8-1.9-1.7c0.1-1.4,0.8-3,2.3-3.4c0.9-0.2,1.7-0.7,2.4-0.8
			c0.3-4.5-0.3-7.7-0.1-11.2c0.2-1.9,1.3-4,3.6-4.6c2.5-0.5,3.5,1.1,3.4,2.8c-0.1,1.7-0.1,7.3-0.3,10.8c0.9-0.3,1.3-0.9,2.4-1.1
			c1.4-0.2,2.3,0.9,2.2,2.6c-0.1,1.4-0.9,2.4-1.6,2.8c-1,0.5-2.2,0.9-2.9,1.1c-0.1,1.4-0.3,8.8-0.2,10.9c0,2.1-0.2,9.2-0.3,10.3
			c-0.1,1.1-1.4,2.6-3.2,2.9c-2.1,0.3-3.6-0.1-3.8-1.3c0-1.2,0.2-7.3,0.4-9.8c0.2-2.6,0.3-9.4,0.4-11
			C160.2,227.2,159.3,227.5,158.2,227.7z"/>
		<path class="st3" d="M176,224.7c-1.2,0.1-1.9-0.9-1.9-1.8c0.1-1.5,0.8-3.1,2.3-3.4c0.9-0.2,1.7-0.7,2.4-0.8c0.3-4.6-0.3-8,0-11.7
			c0.2-2,1.4-4.2,3.6-4.7c2.5-0.4,3.4,1.3,3.4,3.1c-0.1,1.8-0.1,7.6-0.3,11.3c0.9-0.3,1.3-0.9,2.4-1.1c1.4-0.2,2.3,1,2.2,2.8
			c-0.1,1.5-0.9,2.5-1.6,2.8c-1,0.5-2.2,0.9-2.9,1.1c-0.1,1.4-0.3,9-0.3,11.1c0,2.1-0.2,9.2-0.3,10.3c-0.1,1.1-1.4,2.5-3.2,2.8
			c-2.1,0.3-3.6-0.2-3.8-1.4c0-1.2,0.2-7.2,0.4-9.8c0.2-2.6,0.3-9.6,0.5-11.2C178,224.2,177,224.5,176,224.7z"/>
		<path class="st3" d="M204.9,238.5c-3,3.1-7.4,4.7-10.6,5.1c-3.2,0.4-4.9-0.2-4.8-2.4c0.3-3.9,3.2-7.5,7-11.1
			c3.1-3.1,6.5-6.1,7.5-6.9c0.6-0.5,1.1-0.9,1.6-1c-0.2-2.4-0.8-5-2.9-4.8c-1.9,0.3-4.5,2.4-5.7,3.7c-0.2,0.2-1.1,1.5-1.8,1.7
			c-1.1,0.1-2.8-0.8-2.7-2.8c0.1-1.1,0.6-1.9,1.2-2.6c2.1-2,8.4-6,10.8-6.4c2.1-0.3,5.7,0.2,7.5,11c0.8,4.3,0.4,10.2,0.4,11.5
			c-0.1,1.3-0.6,4.8-1.6,7.2c-0.4,0.8-2.3,1.3-3.1,1.4c-1.1,0.1-3.1,0.1-3.1-1.8C204.7,239.7,204.8,239.2,204.9,238.5z M198.1,234.3
			c-1.2,1.7-1.5,2.5-1.6,3.6c0,0.9,0.5,1.3,1.5,1.2c3-0.5,4.9-3,5.6-3.5c1-0.6,1.9-1.1,1.7-1c0.2-2.1,0.4-4.7,0.4-7.4
			C203.8,228.8,200.1,231.7,198.1,234.3z"/>
		<path class="st3" d="M237.4,231c-0.2,2.4,0.2,3.6,2.5,3.5c2.3-0.2,4.4-1.6,5.6-2.3c1.1-0.7,3-3.2,4.8-3.5c1.9-0.1,2.8,0.9,2.8,2
			c-0.7,3.9-10.1,7.6-15.1,8.1c-6.8,0.3-7.7-2.9-7.5-6.3c1.4-12.8,13.2-24.2,15.7-24.7c1.7-0.1,2.8,0.6,2.7,3.4
			c-0.2,2-0.7,4-2.5,4.6C241,217.7,237.8,226.4,237.4,231z"/>
		<path class="st3" d="M269.6,234c-3,2.9-7.3,4.1-10.5,4.3c-3.2,0.1-4.8-0.6-4.8-2.7c0.3-3.9,3.2-7.4,7-10.7
			c3.1-2.9,6.5-5.7,7.4-6.6c0.6-0.5,1.1-0.8,1.6-0.9c-0.2-2.6-0.8-5.4-2.9-5.4c-1.9,0.1-4.5,2.1-5.7,3.4c-0.2,0.2-1.1,1.5-1.8,1.6
			c-1.1,0-2.7-1.1-2.6-3.2c0.1-1.2,0.6-2,1.2-2.7c2.1-1.9,8.4-5.6,10.8-5.8c2.1-0.1,5.6,1,7.3,12.4c0.8,4.6,0.4,10.6,0.3,11.9
			c-0.1,1.3-0.6,4.8-1.6,7.1c-0.4,0.7-2.3,1.1-3,1.1c-1.1,0-3.1-0.2-3.1-2C269.4,235.2,269.5,234.6,269.6,234z M262.9,229.2
			c-1.2,1.6-1.5,2.4-1.5,3.5c0,0.9,0.5,1.4,1.5,1.4c3-0.2,4.9-2.6,5.6-3c1-0.5,1.9-1,1.7-0.9c0.2-2.1,0.4-4.8,0.4-7.6
			C268.6,223.9,264.9,226.6,262.9,229.2z"/>
		<path class="st3" d="M281.2,215.2c-1.2,0-1.9-1.3-1.8-2.3c0.1-1.6,0.8-3.3,2.3-3.4c0.9,0,1.7-0.5,2.4-0.5
			c0.3-5.2-0.2-9.3,0.1-13.6c0.2-2.4,1.4-4.7,3.6-4.9c2.4,0,3.4,2.3,3.3,4.3c-0.1,2-0.2,8.8-0.5,12.8c0.9-0.2,1.3-0.8,2.4-0.8
			c1.4,0.1,2.2,1.5,2.2,3.4c-0.1,1.6-0.9,2.6-1.6,2.9c-1,0.4-2.2,0.6-2.9,0.8c-0.1,1.5-0.4,9.6-0.3,11.8c0,2.2-0.2,9.4-0.3,10.5
			c-0.1,1-1.4,2.3-3.1,2.4c-2.1,0-3.6-0.7-3.8-1.9c0-1.2,0.2-7.3,0.4-9.9c0.2-2.7,0.4-10.2,0.5-11.9
			C283.2,215,282.2,215.1,281.2,215.2z"/>
		<path class="st3" d="M334.1,223.8c0.3-5.8-0.3-10.5-1.8-10.8c-2.7,0.1-7.3,6.6-7.8,11c-0.2,2.7-0.3,6.1-0.1,7.9
			c0.2,1.5,0.6,3.5,0.5,4.8c-0.1,1.3-1.2,1.9-2.5,2c-3-0.1-3.2-0.5-3.6-1.3c-0.5-1.9-1.1-12.2-1.2-15.4c0.1-6.6-0.7-21.4-0.1-31.3
			c0.6-7.6,2.2-10.2,5.6-10.1c2,0.2,3,2.4,2.9,5.2c-0.2,2.7-0.8,6.4-1.3,13.6c-0.3,5-0.1,11.4-0.3,16.2c1-3.3,5.6-8.8,11.4-8.7
			c4,0.5,6.1,6.8,5.4,18.1c-0.2,2.2-1.2,8-1.5,10.5c-0.2,1.7-1.1,3.1-4.2,3c-2-0.3-3-1.3-2.9-2.7
			C332.7,233.4,333.6,229.5,334.1,223.8z"/>
		<path class="st3" d="M362.3,196.9c1.9-3.9,3.1-8.3,4.7-8.2c2.1,0.4,3.6,3.5,3.6,5.1c-0.1,0.9-1.3,4.5-2.9,7.5
			c-1.5,2.3-4.4,4.6-5.5,4.6c-1.5-0.2-2.8-1.2-2.7-3.1C359.7,201,361.6,198.3,362.3,196.9z"/>
		<path class="st3" d="M367.3,230c-0.2,3.4,1.2,5.3,2.1,5.4c0.9,0.1,2.2-0.6,4-2.1c1.1-0.9,2.7-2.6,4.4-3.9c1.1-0.8,1.7-1.2,2.6-1.1
			c1.6,0.2,2.1,1,2.1,2.3c-0.3,2.4-4.7,4.9-7.2,6.4c-1.4,0.8-6.7,4-8.3,4c-4.3-0.6-5.9-6.1-5.6-10.4c0,0,0,0,0-0.1
			c-0.3,0.1-0.6,0.1-1.2,0.1c-0.6-0.1-1.1-1.2-1.1-1.9c0.2-1.9,0.7-2.3,2.7-3.1c0-0.5,0.1-1,0.1-1.5c0.8-8.8,4.5-15.6,6.4-15.7
			c7,1,11.1,7.3,11.1,10.3c-0.2,2.1-0.2,4-2.7,5.6c-2,1.2-8,3.8-9.1,4.6C367.4,229.3,367.4,229.7,367.3,230z M367.8,223.3
			c1.2-0.6,4.9-2.1,5.9-2.7c0.1-2.4-1.1-4.4-3.3-4.7C369.3,216,368,220.8,367.8,223.3z"/>
		<path class="st3" d="M398.7,242.2c0.1-0.9,1.3-12.6,1.4-15.7c0.1-2.9-0.5-6.3-2.1-6.7c-1.8-0.1-5.9,4-6.4,8.7
			c-0.4,6.4,1.1,10.8,1,13.8c-0.2,1.3-2.7,1.6-3.6,1.6c-1.7-0.2-3-0.9-3.4-1.8c-0.5-2-0.7-8.2-0.7-10.4c0-6.9-0.8-11.3-0.6-14.3
			c0.3-2.4,2.8-3.7,3.7-3.6c2.4,0.3,3.6,1.1,3.7,6.5c2-3.4,5.5-6.5,8.8-6.1c2.3,0.4,4.4,2.2,5.1,5.4c2.4-2.8,6.8-4.1,10.1-3.6
			c3.2,0.8,4.6,6.1,4.6,10c0,2.7-0.1,7.3-0.2,10.1c-0.1,2.8,0.1,5.9-0.1,7.6c-0.2,1.7-1.2,3.1-4.2,2.7c-3.1-0.5-3.4-2-3.3-3.7
			c0.3-3.7,1-10.6,1.3-14c0.2-2.9,0.4-7-1.6-7.5c-2.1-0.3-3.2,0.6-5.8,3c0,0.3-0.1,7.8-0.2,10.4c-0.1,2.8-0.1,5.9-0.3,7.6
			c-0.2,1.7-1,3.1-4,2.8C399.3,244.6,398.6,243.8,398.7,242.2z"/>
		<path class="st3" d="M448.2,248.8c-3,2.4-7.2,2.7-10.4,2.2c-3.1-0.6-4.7-1.8-4.7-4.1c0.3-4,3.1-6.9,6.9-9.2c3-2.1,6.4-3.9,7.3-4.4
			c0.6-0.3,1.1-0.4,1.6-0.4c-0.2-2.3-0.9-4.8-2.9-5.3c-1.8-0.3-4.4,0.7-5.5,1.6c-0.2,0.2-1.1,1.1-1.7,1c-1.1-0.3-2.7-1.7-2.6-3.5
			c0.1-1,0.6-1.6,1.2-2c2-1.1,8.1-2.6,10.5-2.2c2,0.5,5.6,1.7,7.4,12.2c0.8,4.3,0.5,10,0.4,11.2c-0.1,1.3-0.6,4.8-1.6,7.2
			c-0.4,0.7-2.3,0.7-3,0.5c-1.1-0.2-3.1-1-3-3C448,250,448.1,249.4,448.2,248.8z M441.6,242.3c-1.2,1.4-1.4,2.1-1.5,3.2
			c0,1,0.5,1.6,1.5,1.8c2.9,0.5,4.8-1.6,5.5-1.9c1-0.3,1.9-0.6,1.7-0.5c0.2-2.1,0.4-4.7,0.4-7.3
			C447.1,238.4,443.5,240.2,441.6,242.3z"/>
		<path class="st3" d="M463.6,209.1c1.5,0.5,3.4,1.9,3.4,3.5c-0.1,1.7-0.7,4.9-1,9.1c-0.2,3.5,0.8,15.5,0.8,19.3
			c0,5,1.3,11.8,1.2,13.8c-0.2,1.9-1.5,2.5-3.6,2.1c-1.9-0.5-4-1.5-4.1-3.2c0-2.1-0.5-8.2-0.5-14.2c0-6-1.5-16.8-0.9-24.9
			C459.4,209.4,461,208.3,463.6,209.1z"/>
		<path class="st3" d="M475.9,213.1c1.5,0.5,3.4,1.9,3.4,3.4c-0.1,1.6-0.6,4.6-1,8.6c-0.2,3.4,0.9,15.1,0.8,18.9
			c0,5,1.3,11.9,1.2,13.9c-0.2,2-1.5,2.6-3.6,2.1c-1.9-0.5-4-1.6-4.1-3.4c0-2.1-0.5-8.4-0.5-14.4c0-6-1.5-16.5-1-24.2
			C471.7,213.2,473.4,212.3,475.9,213.1z"/>
		<path class="st3" d="M300.6,229c-0.2,2.4,0.2,3.7,2.5,3.8c2.3,0,4.4-1.3,5.5-1.9c1.1-0.6,2.9-3,4.8-3.1c1.8,0.1,2.8,1.2,2.8,2.2
			c-0.7,3.9-10.1,6.9-15,7c-6.7-0.3-7.7-3.6-7.5-7c1.4-12.9,13.1-23.6,15.6-23.9c1.7,0.1,2.8,0.9,2.7,3.7c-0.2,2-0.7,4-2.5,4.5
			C304.2,215.7,301.1,224.3,300.6,229z"/>
		<g>
			<path class="st4" d="M506.7,255.2c-0.5-0.6-0.8-1.1-1.4-1.6c0.9-1.3,1.3-2.6,1.5-4.5c0.1-0.8,0.2-2.2,0.3-3.8
				c0.3-3.3,0.7-7.8,1-12c0.2-4,0.7-7.5,1-9.6c0.1-1,0.2-1.6,0.2-2c0.4-5.2-3.3-9.4-8.5-9.7c-2.2-0.2-4.5,0.7-6.4,2.3
				c-1.9,1.6-3,3.8-3.2,5.9c-0.1,1-0.1,3.1,0,6.6c0,3.5,0,7.8-0.1,9.4c-0.1,2-0.3,5.9-0.4,8.9c-0.1,1.9-0.1,3.7-0.2,4.2
				c-0.1,1.4,0.1,2.5,0.9,3.7c-2.4,1.3-3.9,3.8-4.2,6.5c-0.2,2.3,0.4,4.3,1.8,6c1.8,2.1,4.7,3.3,8.8,3.5c5.3,0.3,10.8-1.9,11.3-6.7
				C509.4,260,508.5,257.2,506.7,255.2z"/>
			<path class="st3" d="M500.5,216.6c2.8,0.2,4.3,2.3,4.2,4.7c-0.1,1.1-0.9,6-1.2,11.7c-0.4,6.3-1.1,13.2-1.3,15.7
				c-0.1,1.8-1,3.3-3,3.3c-2.9-0.1-3.8-2.1-3.7-3.6c0.1-1.5,0.2-8.7,0.4-12c0.2-3.2,0-14.1,0.1-16
				C496.1,218.6,498.4,216.4,500.5,216.6z M498.6,255.5c3.2,0.2,5.8,4.2,5.5,6c-0.3,1.4-3,2.4-5.8,2.3c-3.8-0.2-5.8-1.4-5.5-3.9
				C492.9,258.1,496.4,255.4,498.6,255.5z"/>
		</g>
	</g>
</g>
</svg>
